PathFileType	4	(x/y/z)	S04_M20_T19.trc
DataRate	CameraRate	NumFrames	NumMarkers	Units	OrigDataRate	OrigDataStartFrame	OrigNumFrames
240	240	9	51	mm	240	200	532
Frame#	Time	Sternum			R.Acromium			L.Acromium			Top.Head			R.ASIS			L.ASIS			R.PSIS			L.PSIS			R.Great.Tro			L.Great.Tro			R.Iliac.Crest			L.Iliac.Crest			V.Sacral			R.Thigh.Upper.Post			R.Thigh.Lower.Ant			R.Thigh.Lower.Post			R.Thigh.Upper.Ant			R.Knee.Lat			R.Knee.Med			R.Shank.Upper.Post			R.Shank.Lower.Ant			R.Shank.Lower.Post			R.Shank.Upper.Ant			R.Ankle.Lat			R.Ankle.Med			R.Heel.Upper			R.Heel.Med			R.Heel.Lat			R.Toe.Lat			R.Toe.Med			R.Toe.Tip			L.Thigh.Upper.Post			L.Thigh.Lower.Ant			L.Thigh.Lower.Post			L.Thigh.Upper.Ant			L.Knee.Lat			L.Knee.Med			L.Shank.Upper.Post			L.Shank.Lower.Ant			L.Shank.Lower.Post			L.Shank.Upper.Ant			L.Ankle.Lat			L.Ankle.Med			L.Heel.Upper			L.Heel.Med			L.Heel.Lat			L.Toe.Lat			L.Toe.Med			L.Toe.Tip			Cervical.Spine			Back			
		X1	Y1	Z1	X2	Y2	Z2	X3	Y3	Z3	X4	Y4	Z4	X5	Y5	Z5	X6	Y6	Z6	X7	Y7	Z7	X8	Y8	Z8	X9	Y9	Z9	X10	Y10	Z10	X11	Y11	Z11	X12	Y12	Z12	X13	Y13	Z13	X14	Y14	Z14	X15	Y15	Z15	X16	Y16	Z16	X17	Y17	Z17	X18	Y18	Z18	X19	Y19	Z19	X20	Y20	Z20	X21	Y21	Z21	X22	Y22	Z22	X23	Y23	Z23	X24	Y24	Z24	X25	Y25	Z25	X26	Y26	Z26	X27	Y27	Z27	X28	Y28	Z28	X29	Y29	Z29	X30	Y30	Z30	X31	Y31	Z31	X32	Y32	Z32	X33	Y33	Z33	X34	Y34	Z34	X35	Y35	Z35	X36	Y36	Z36	X37	Y37	Z37	X38	Y38	Z38	X39	Y39	Z39	X40	Y40	Z40	X41	Y41	Z41	X42	Y42	Z42	X43	Y43	Z43	X44	Y44	Z44	X45	Y45	Z45	X46	Y46	Z46	X47	Y47	Z47	X48	Y48	Z48	X49	Y49	Z49	X50	Y50	Z50	X51	Y51	Z51	

200	0.82917	304.1	1232.7	305.86	190.16	1455.3	500.88	149.17	1448	150.83	178.24	1786.7	320.44	308.55	959.25	423.54	250.85	956.3	177.3	78.363	995.5	378.5	69.959	997.27	298.1	246.69	891.44	512.57	106.83	887.7	148.53	226.46	1040.6	490.88	154	1047.1	155.19	52.567	954.95	343.75	336.05	646.06	493.78	430.58	602.02	442.18	370.51	563.89	473.1	397.28	704.94	468.02	420	515.01	458.48	375.37	495.32	333.21	405.93	276.97	467.16	482.1	217.08	414.8	420.94	209.23	452.69	466.05	284.97	437.7	455.18	100.01	430.76	465.83	119.45	339.52	398.6	66.285	374.1	410.23	37.754	342.95	406.62	33.529	407.68	576.11	60.684	448.15	603.34	76.357	332.23	661.09	111.93	377.87	27.388	676.42	162.81	74.76	561.07	143.83	11.325	588.49	167.77	85.567	650.71	135.99	11.536	488.7	157.3	34.654	460.3	279.65	-167.45	404.48	173.9	-171.66	293.63	168.36	-212.34	341.8	182.39	-126.55	355.35	160.37	-285.74	185.24	194.04	-268.44	192.95	284.55	-357.19	219	245.36	-367.23	198.97	281.27	-375.79	195.75	219.81	-259.95	60.176	177.19	-223.17	50.519	290.24	-180.49	36.804	242.09	120.2	1504.2	336.36	41.269	1247.1	317.73
201	0.83333	310.27	1233.6	306.85	195.64	1456.1	501.64	155.52	1448.9	151.51	184.04	1787.5	321.33	314.56	960.24	424.63	257.27	956.71	178.33	84.337	996.33	378.97	76.112	997.88	298.51	252.42	892.47	513.41	113.46	887.66	149.33	232.27	1041.5	491.62	160.58	1047.7	155.88	58.609	955.69	344.26	341.66	646.71	494.38	436	602.45	442.66	375.86	564.47	473.6	403.04	705.43	468.65	425.14	515.31	458.81	380.42	496.08	333.63	409.19	277.34	467.68	484.56	216.71	414.93	423.5	209.45	453.14	469.24	284.76	437.88	456.41	99.861	431.04	467.07	119.31	339.79	399.26	66.737	374.4	410.56	38.191	343.13	406.98	33.792	407.85	576.98	59.118	448.03	604.12	74.695	332.07	662.42	109.46	377.64	35.441	675.27	163.05	83.729	560.41	143.51	20.142	587.21	167.73	93.787	650.15	136.03	21.047	487.81	156.83	44.664	458.79	278.99	-158.59	405.98	173.99	-164.46	295.26	167.98	-204.31	343.94	182.44	-118.47	356.34	160.07	-279.98	188.49	193.62	-262	195.77	284.08	-349.91	224.49	245.2	-360.42	204.93	281.23	-369.38	201.76	219.83	-258.05	62.375	177.23	-220.91	52.081	290.04	-179.27	36.47	241.79	125.98	1504.9	337.02	47.382	1247.7	318.08
202	0.8375	316.38	1234.5	307.82	201.09	1456.9	502.39	161.85	1449.8	152.18	189.82	1788.2	322.22	320.54	961.23	425.69	263.6	957.18	179.35	90.267	997.18	379.48	82.2	998.52	298.96	258.11	893.45	514.22	120.01	887.66	150.15	238.06	1042.4	492.36	167.03	1048.3	156.6	64.594	956.44	344.81	347.11	647.3	494.98	441.27	602.78	443.15	381.02	564.98	474.08	408.68	705.84	469.3	430.1	515.56	459.14	385.26	496.76	334.03	412.34	277.67	468.14	486.91	216.33	415.05	425.95	209.64	453.54	472.3	284.54	438.04	457.59	99.726	431.28	468.26	119.18	340.02	399.88	67.157	374.68	410.87	38.597	343.3	407.33	34.048	408.01	577.8	57.639	447.9	604.84	73.092	331.88	663.67	107.08	377.37	43.546	674.11	163.28	92.784	559.76	143.18	29.041	585.92	167.68	102.06	649.61	136.07	30.713	486.92	156.37	54.83	457.29	278.35	-149.52	407.48	174.08	-157.05	296.93	167.6	-196.07	346.09	182.49	-110.19	357.35	159.77	-273.98	191.84	193.2	-255.35	198.66	283.62	-342.35	230.01	245.03	-353.33	210.93	281.18	-362.68	207.84	219.85	-255.92	64.766	177.26	-218.42	53.81	289.82	-177.86	36.177	241.44	131.74	1505.6	337.66	53.438	1248.4	318.43
203	0.84167	322.43	1235.4	308.77	206.52	1457.8	503.11	168.16	1450.7	152.83	195.58	1789	323.09	326.46	962.21	426.72	269.85	957.71	180.37	96.153	998.03	380.03	88.222	999.18	299.45	263.74	894.4	515.03	126.48	887.7	150.99	243.85	1043.4	493.09	173.34	1048.9	157.34	70.52	957.22	345.39	352.42	647.82	495.56	446.38	603.01	443.62	386	565.41	474.54	414.21	706.16	469.94	434.88	515.74	459.44	389.9	497.37	334.41	415.35	277.97	468.56	489.17	215.95	415.14	428.3	209.81	453.89	475.24	284.3	438.19	458.71	99.604	431.49	469.38	119.05	340.22	400.47	67.545	374.93	411.17	38.972	343.45	407.67	34.296	408.16	578.57	56.246	447.74	605.5	71.546	331.68	664.84	104.79	377.08	51.7	672.95	163.5	101.92	559.13	142.86	38.018	584.64	167.64	110.39	649.09	136.11	40.529	486.04	155.91	65.136	455.84	277.75	-140.23	409	174.18	-149.42	298.63	167.26	-187.61	348.26	182.56	-101.69	358.38	159.48	-267.75	195.28	192.8	-248.49	201.61	283.18	-334.53	235.57	244.86	-345.95	216.96	281.13	-355.7	213.95	219.85	-253.53	67.348	177.27	-215.66	55.705	289.58	-176.22	35.941	241.04	137.46	1506.4	338.28	59.438	1249.1	318.78
204	0.84583	328.43	1236.3	309.7	211.93	1458.6	503.8	174.45	1451.7	153.45	201.31	1789.8	323.96	332.34	963.17	427.72	276	958.28	181.36	101.99	998.9	380.62	94.175	999.86	299.99	269.33	895.3	515.82	132.87	887.78	151.84	249.62	1044.4	493.82	179.52	1049.6	158.12	76.383	958.01	346.02	357.58	648.28	496.12	451.33	603.16	444.09	390.81	565.77	474.97	419.61	706.39	470.59	439.47	515.88	459.74	394.32	497.9	334.77	418.23	278.23	468.92	491.33	215.57	415.21	430.54	209.95	454.2	478.06	284.05	438.31	459.78	99.493	431.67	470.45	118.92	340.38	401.02	67.904	375.15	411.45	39.317	343.59	408	34.538	408.29	579.29	54.939	447.58	606.12	70.056	331.45	665.94	102.6	376.75	59.901	671.81	163.73	111.13	558.54	142.56	47.068	583.37	167.6	118.77	648.59	136.14	50.486	485.18	155.47	75.567	454.43	277.2	-130.75	410.53	174.3	-141.58	300.36	166.94	-178.94	350.45	182.65	-93.007	359.43	159.21	-261.28	198.8	192.4	-241.42	204.63	282.77	-326.46	241.12	244.7	-338.32	222.98	281.07	-348.44	220.09	219.85	-250.85	70.122	177.26	-212.62	57.761	289.3	-174.33	35.786	240.58	143.16	1507.1	338.88	65.382	1249.8	319.13
205	0.85	334.37	1237.2	310.61	217.32	1459.5	504.48	180.69	1452.6	154.06	207.03	1790.7	324.82	338.16	964.11	428.69	282.07	958.91	182.33	107.78	999.77	381.25	100.06	1000.6	300.57	274.88	896.16	516.59	139.17	887.91	152.71	255.38	1045.3	494.54	185.57	1050.2	158.93	82.183	958.82	346.69	362.6	648.7	496.67	456.12	603.22	444.54	395.43	566.07	475.37	424.9	706.56	471.22	443.89	515.96	460.01	398.53	498.36	335.1	420.98	278.47	469.23	493.39	215.19	415.27	432.68	210.07	454.45	480.75	283.78	438.42	460.8	99.394	431.81	471.47	118.79	340.5	401.54	68.234	375.34	411.71	39.632	343.72	408.31	34.773	408.41	579.97	53.718	447.4	606.69	68.622	331.2	666.95	100.49	376.4	68.149	670.68	163.95	120.4	557.98	142.27	56.186	582.12	167.58	127.19	648.13	136.18	60.576	484.35	155.05	86.109	453.1	276.71	-121.07	412.07	174.42	-133.54	302.12	166.65	-170.06	352.66	182.74	-84.131	360.51	158.97	-254.58	202.39	192.03	-234.16	207.7	282.39	-318.16	246.65	244.55	-330.43	228.97	281.03	-340.91	226.21	219.86	-247.85	73.084	177.22	-209.27	59.971	288.99	-172.16	35.733	240.07	148.83	1507.9	339.46	71.271	1250.6	319.48
206	0.85417	340.25	1238.1	311.48	222.69	1460.4	505.13	186.89	1453.6	154.66	212.72	1791.5	325.66	343.92	965.03	429.63	288.05	959.58	183.29	113.52	1000.6	381.91	105.87	1001.3	301.19	280.38	896.98	517.35	145.39	888.07	153.6	261.13	1046.3	495.26	191.49	1050.9	159.77	87.916	959.65	347.39	367.48	649.07	497.19	460.76	603.21	444.97	399.89	566.31	475.75	430.06	706.66	471.85	448.14	516.01	460.26	402.53	498.75	335.41	423.59	278.67	469.49	495.36	214.8	415.3	434.71	210.18	454.66	483.31	283.51	438.51	461.76	99.306	431.92	472.43	118.66	340.6	402.02	68.538	375.51	411.95	39.918	343.83	408.6	35.001	408.52	580.6	52.583	447.22	607.22	67.244	330.94	667.9	98.477	376.02	76.442	669.58	164.18	129.74	557.46	142.01	65.37	580.9	167.58	135.65	647.7	136.22	70.789	483.57	154.65	96.745	451.86	276.29	-111.22	413.62	174.54	-125.3	303.91	166.4	-161	354.88	182.85	-75.073	361.62	158.75	-247.64	206.06	191.69	-226.7	210.82	282.04	-309.66	252.14	244.42	-322.32	234.91	281	-333.14	232.3	219.88	-244.49	76.226	177.17	-205.59	62.328	288.65	-169.66	35.808	239.5	154.47	1508.7	340.03	77.105	1251.4	319.85
207	0.85833	346.08	1239	312.33	228.05	1461.3	505.77	193.04	1454.6	155.24	218.39	1792.4	326.5	349.63	965.93	430.53	293.94	960.3	184.21	119.2	1001.5	382.59	111.61	1002	301.84	285.84	897.76	518.09	151.53	888.28	154.49	266.85	1047.3	495.97	197.3	1051.6	160.62	93.583	960.49	348.12	372.22	649.4	497.68	465.26	603.15	445.38	404.2	566.52	476.1	435.11	706.71	472.45	452.22	516.01	460.5	406.34	499.09	335.71	426.07	278.84	469.69	497.23	214.42	415.32	436.63	210.26	454.83	485.75	283.22	438.59	462.67	99.23	432	473.33	118.53	340.66	402.47	68.817	375.65	412.17	40.176	343.92	408.88	35.222	408.62	581.18	51.534	447.03	607.71	65.924	330.67	668.78	96.558	375.63	84.78	668.52	164.42	139.13	556.99	141.78	74.616	579.73	167.6	144.16	647.31	136.28	81.116	482.83	154.28	107.46	450.71	275.93	-101.2	415.19	174.68	-116.86	305.72	166.19	-151.76	357.11	182.97	-65.841	362.75	158.56	-240.46	209.78	191.39	-219.05	213.99	281.74	-300.96	257.57	244.34	-313.99	240.75	280.99	-325.14	238.32	219.91	-240.75	79.538	177.08	-201.56	64.819	288.28	-166.82	36.037	238.89	160.08	1509.5	340.59	82.887	1252.3	320.23
208	0.8625	351.85	1240	313.14	233.41	1462.2	506.38	199.13	1455.6	155.8	224.04	1793.2	327.33	355.26	966.81	431.4	299.74	961.07	185.12	124.82	1002.4	383.3	117.29	1002.8	302.51	291.25	898.51	518.82	157.59	888.52	155.38	272.56	1048.2	496.66	202.99	1052.4	161.49	99.181	961.34	348.86	376.83	649.71	498.16	469.61	603.05	445.77	408.35	566.7	476.44	440.03	706.72	473.02	456.14	515.98	460.73	409.98	499.38	335.98	428.43	279	469.85	499	214.04	415.34	438.44	210.33	454.95	488.07	282.93	438.67	463.52	99.165	432.05	474.19	118.41	340.69	402.88	69.073	375.77	412.38	40.41	344.01	409.15	35.435	408.7	581.72	50.568	446.84	608.15	64.663	330.39	669.59	94.734	375.22	93.162	667.49	164.67	148.58	556.58	141.59	83.922	578.6	167.66	152.7	646.96	136.34	91.548	482.15	153.92	118.24	449.68	275.65	-91.032	416.77	174.81	-108.23	307.56	166.03	-142.34	359.35	183.1	-56.445	363.92	158.41	-233.06	213.56	191.12	-211.23	217.2	281.48	-292.1	262.91	244.3	-305.48	246.47	281.01	-316.92	244.25	219.97	-236.6	83.005	176.97	-197.15	67.431	287.87	-163.58	36.445	238.23	165.67	1510.4	341.14	88.618	1253.1	320.62
